<?xml version="1.0" encoding="UTF-8"?>
<svg xmlns="http://www.w3.org/2000/svg" version="1.1" viewBox="0 0 194.47 55">
  <!-- Generator: Adobe Illustrator 29.8.3, SVG Export Plug-In . SVG Version: 2.1.1 Build 3)  -->
  <defs>
    <style>
      .st0 {
        font-family: MullerRegular, Muller;
        font-size: 18px;
      }

      .st1, .st2 {
        fill: #fff;
      }

      .st3 {
        fill: #2b2b2b;
      }

      .st4 {
        letter-spacing: .05em;
      }

      .st4, .st5 {
        fill: #ff9e3e;
      }

      .st6 {
        display: none;
      }

      .st2 {
        letter-spacing: .05em;
      }
    </style>
  </defs>
  <g id="_Слой_1">
    <g id="_Слой_2">
      <rect id="Rectangle_166" class="st3" width="194.47" height="55"/>
      <polygon class="st5" points="38.01 29.61 38.01 35.19 29.2 35.19 29.2 20.17 38.01 20.17 38.01 25.9 47.96 25.9 47.96 13.04 19.04 13.04 19.04 41.96 47.96 41.96 47.96 29.61 38.01 29.61"/>
      <polygon id="Rectangle_1671" class="st1" points="38.01 35.19 43.81 41.96 23.4 41.96 29.2 35.19 38.01 35.19"/>
    </g>
  </g>
  <g id="_Слой_21" data-name="Слой_2" class="st6">
    <text class="st0" transform="translate(58.2 33.95) scale(.96 1)"><tspan class="st4" x="0" y="0">СВЕТО</tspan><tspan class="st2" x="65.59" y="0">СИЛА</tspan></text>
  </g>
  <g id="_Слой_2__x28_копия_x29_" data-name="Слой_2__x28_копия_x29_">
    <g>
      <path class="st5" d="M65.33,21.13c1.21,0,2.38.29,3.4.85v1.51c-.88-.61-2.02-.92-3.16-.92-2.5,0-5.11,1.57-5.13,5.17-.02,3.37,2.68,4.99,5.18,4.99,1.24,0,2.37-.31,3.2-.92v1.51c-1,.54-2.21.85-3.51.85-3.04,0-6.36-2.23-6.34-6.43.02-4.38,3.21-6.61,6.36-6.61Z"/>
      <path class="st5" d="M76.98,21.35c2.47,0,4.11,1.06,4.11,3.19,0,1.6-.98,2.5-1.93,2.79,1,.29,2.42,1.12,2.42,3.17,0,2.86-2.69,3.46-4.46,3.46h-5.1v-12.6h4.96ZM76.86,22.79h-3.39v3.92h3.78c1.26,0,2.37-.52,2.37-1.96s-1.05-1.96-2.76-1.96ZM77.22,28.15h-3.75v4.36h3.35c1.52,0,3.28-.11,3.28-2.18,0-1.96-1.73-2.18-2.88-2.18Z"/>
      <path class="st5" d="M93,21.35v1.44h-6.7v4.09h6.18v1.44h-6.18v4.2h6.81v1.44h-8.26v-12.6h8.15Z"/>
      <path class="st5" d="M104.99,21.35v1.44h-4.25v11.16h-1.45v-11.16h-4.25v-1.44h9.95Z"/>
      <path class="st5" d="M112.59,21.13c4.23,0,6.32,3.26,6.32,6.52s-2.09,6.52-6.32,6.52-6.32-3.26-6.32-6.52,2.09-6.52,6.32-6.52ZM112.59,22.57c-3.28,0-4.85,2.48-4.85,5.08s1.57,5.08,4.85,5.08,4.85-2.48,4.85-5.08-1.57-5.08-4.85-5.08Z"/>
      <path class="st1" d="M127.7,21.13c1.21,0,2.38.29,3.4.85v1.51c-.88-.61-2.02-.92-3.16-.92-2.5,0-5.11,1.57-5.13,5.17-.02,3.37,2.68,4.99,5.18,4.99,1.24,0,2.37-.31,3.2-.92v1.51c-1,.54-2.21.85-3.51.85-3.04,0-6.36-2.23-6.34-6.43.02-4.38,3.21-6.61,6.36-6.61Z"/>
      <path class="st1" d="M143,33.95v-10.08l-7.27,10.08h-1.35v-12.6h1.45v10.06l7.27-10.06h1.35v12.6h-1.45Z"/>
      <path class="st1" d="M158.21,21.35v12.6h-1.45v-11.16h-4.61c-.48,5.74-.93,11.33-4.09,11.34-.33,0-.69-.05-1.07-.2v-1.44c.24.09.45.13.83.13,2.19,0,2.54-5.71,2.95-11.27h7.45Z"/>
      <path class="st1" d="M160.79,33.95l5.27-12.6h1.61l5.25,12.6h-1.55l-1.24-3.04h-6.51l-1.24,3.04h-1.57ZM164.18,29.5h5.37l-2.5-6.12c-.07-.16-.12-.31-.19-.49-.07.18-.12.32-.19.49l-2.49,6.12Z"/>
    </g>
  </g>
</svg>